<svg xmlns="http://www.w3.org/2000/svg" viewBox="280 400 1040 820">
  <path fill="#ffffff" d="M1243.75,662.39c-6.61-10.3-17-16.38-27.37-20.21-20-6.66-41.18-7.25-61.86-6-36.44,2.73-72.44,10.7-108,20.07A125.59,125.59,0,0,0,1064.7,655a362.72,362.72,0,0,1,81.08-3.51c12.28,1.75,24.92,3.56,36.16,9.88,7.41,4.06,13.87,12.48,13.5,22.42-.1,12.92-6.94,24.07-13.73,33.74-13.93,18.67-31.15,33.56-48.39,47.93-32.85,26.17-67.46,49.34-102.65,71.13-18.51,12.11-38.12,21.8-56.61,33.89-16.55,7.5-32.14,17.5-48.5,25.5-42.49,22.61-86.25,41.92-129.88,61.38-33.75,13-67.29,27-101.66,37.77-6.9,2.21-13.91,4.1-20.48,7.43-4.6.11-8.95,2.16-13.37,3.36-34.81,10.09-70,18.85-105.65,23.69-31.54,4.64-64.06,6.92-95.26-1.69-13.75-4.19-28.6-11.21-35.48-26.6-6.54-15.07-2.41-32.86,4.12-47,12-25.52,30.34-46.08,48.87-65.36a627.11,627.11,0,0,1,68.37-58.88c17.24-13.27,35.73-24.35,53-37.64-39,20.64-77.6,42.55-114,68.81-35.34,24.91-69.25,53.34-97.44,88.5C371,970.64,355.93,994,351.44,1021.73c-3.76,20.94,1.84,43.94,15.28,58.92,22.76,27.27,57,34.82,88.39,38.63a391.82,391.82,0,0,0,104-5.43c51.27-8.52,101.48-23.95,150.76-42,38.08-13.61,75.26-30.3,112.09-47.78,60-28.38,118.4-61.08,175.36-96.76,54.11-34.19,107.14-71,157-113,24.92-21.17,48.91-44.1,69.46-70.88,9.8-13.38,19.24-27.72,23.8-44.64C1251.13,686.89,1250.43,672.72,1243.75,662.39Z"/>
  <path fill="#ffffff" d="M1065.25,788.7c-17.45,11.64-35.42,22.25-53.22,33.11-17.14,9.1-33.34,20.61-51.25,27.68q-48.36-104-96.44-208.19c-3.86-7.7-6.46-16.48-12.14-22.74-47.74,100.92-93.72,203-141.28,304-6.6,13.16-11.6,27.68-19.24,40-22.31,8.72-45.68,13.4-68.6,19.6-26.68,6.06-53.55,12.32-80.74,13.87,1.72-4.73,3.52-9.39,5.58-13.94q51-110.28,102.67-220.1c23.21-51.58,48.22-102.08,71.91-153.36C745.69,560,768.28,511,791.1,462.17c10.48-23.31,31.17-39.91,53.71-43.62,27.23-4.8,55.91,11.24,69.82,38.51,6.82,14.78,14.3,29.15,20.9,44.06q65.33,137.77,130,276C1067,780.7,1070.17,786.67,1065.25,788.7Zm-62.33,163.09c6.6,16.44,14.39,32.19,21.47,48.36,18.51,40.63,81.06,182.15,81.06,182.15l144.26-.41s-41.85-95.59-49.49-113.59q-42.87-94.56-87-188.34c-1.84-4.73-5.93,0-8.44,1.33C1071.62,906.36,1037.2,928.93,1002.92,951.79Z"/>
  <path fill="#ffffff" d="M563.52,1146.38a415,415,0,0,1-76.48,7.09c-6,0-12.05-.14-18.09-.4-4.42,9.4-8.81,18.81-12.53,28.61,45.79.86,91.63.15,137.42.39q10.75-23.14,21.25-46.46C597.32,1140,580.24,1143.59,563.52,1146.38Z"/>
</svg>